<?xml version="1.0" standalone="no"?>
<!DOCTYPE svg PUBLIC "-//W3C//DTD SVG 20010904//EN"
 "http://www.w3.org/TR/2001/REC-SVG-20010904/DTD/svg10.dtd">
<svg version="1.0" xmlns="http://www.w3.org/2000/svg"
 width="1536.000000pt" height="1536.000000pt" viewBox="0 0 1536.000000 1536.000000"
 preserveAspectRatio="xMidYMid meet">
<metadata>
Created by potrace 1.14, written by Peter Selinger 2001-2017
</metadata>
<g transform="translate(0.000000,1536.000000) scale(0.100000,-0.100000)"
fill="#000000" stroke="none">
<path d="M0 7680 l0 -7680 7680 0 7680 0 0 7680 0 7680 -7680 0 -7680 0 0
-7680z m11940 6600 c0 -5 23 -10 50 -10 28 0 50 5 50 10 0 6 7 10 15 10 8 0
15 -4 15 -10 0 -6 33 -10 80 -10 64 0 80 -3 80 -15 0 -11 12 -15 50 -15 28 0
50 -4 50 -10 0 -5 23 -10 50 -10 38 0 50 -4 50 -15 0 -10 10 -15 30 -15 17 0
30 -4 30 -10 0 -5 11 -10 25 -10 16 0 25 -6 25 -15 0 -9 9 -15 25 -15 16 0 25
-6 25 -15 0 -9 9 -15 25 -15 14 0 25 -4 25 -10 0 -5 11 -10 25 -10 16 0 25 -6
25 -15 0 -8 7 -15 15 -15 8 0 15 -4 15 -10 0 -5 11 -10 25 -10 16 0 25 -6 25
-15 0 -8 7 -15 15 -15 8 0 15 -5 15 -11 0 -14 25 -39 39 -39 6 0 11 -7 11 -15
0 -8 5 -15 11 -15 14 0 39 -25 39 -39 0 -6 7 -11 15 -11 8 0 15 -5 15 -11 0
-14 25 -39 39 -39 6 0 11 -7 11 -15 0 -8 5 -15 11 -15 19 0 39 -28 39 -54 0
-14 5 -26 11 -26 17 0 39 -27 39 -49 0 -12 6 -21 15 -21 10 0 15 -10 15 -30 0
-20 5 -30 15 -30 9 0 15 -9 15 -25 0 -14 5 -25 10 -25 6 0 10 -11 10 -25 0
-16 6 -25 15 -25 9 0 15 -9 15 -25 0 -14 5 -25 10 -25 6 0 10 -18 10 -40 0
-29 4 -40 15 -40 11 0 15 -11 15 -40 0 -22 5 -40 10 -40 6 0 10 -22 10 -50 0
-38 4 -50 15 -50 13 0 15 -21 15 -130 0 -109 2 -130 15 -130 13 0 15 -133 15
-1140 0 -1007 -2 -1140 -15 -1140 -8 0 -15 -7 -15 -15 0 -8 7 -15 15 -15 12 0
15 -14 15 -65 0 -51 -3 -65 -15 -65 -13 0 -15 -377 -15 -3335 0 -2958 -2
-3335 -15 -3335 -12 0 -15 -16 -15 -80 0 -47 -4 -80 -10 -80 -5 0 -10 -22 -10
-50 0 -38 -4 -50 -15 -50 -11 0 -15 -11 -15 -40 0 -22 -4 -40 -10 -40 -5 0
-10 -18 -10 -40 0 -29 -4 -40 -15 -40 -9 0 -15 -9 -15 -25 0 -14 -4 -25 -10
-25 -5 0 -10 -18 -10 -40 0 -29 -4 -40 -15 -40 -9 0 -15 -9 -15 -25 0 -16 -6
-25 -15 -25 -9 0 -15 -9 -15 -25 0 -14 -4 -25 -10 -25 -5 0 -10 -7 -10 -15 0
-8 -7 -15 -15 -15 -9 0 -15 -9 -15 -25 0 -14 -4 -25 -10 -25 -5 0 -10 -11 -10
-25 0 -16 -6 -25 -15 -25 -8 0 -15 -7 -15 -15 0 -8 -7 -15 -15 -15 -9 0 -15
-9 -15 -21 0 -22 -22 -49 -39 -49 -6 0 -11 -7 -11 -15 0 -8 -4 -15 -10 -15 -5
0 -10 -11 -10 -25 0 -16 -6 -25 -15 -25 -8 0 -15 -7 -15 -15 0 -8 -5 -15 -11
-15 -14 0 -39 -25 -39 -39 0 -6 -7 -11 -15 -11 -8 0 -15 -7 -15 -15 0 -8 -4
-15 -10 -15 -5 0 -10 -11 -10 -25 0 -20 -5 -25 -26 -25 -26 0 -54 -20 -54 -39
0 -6 -7 -11 -15 -11 -8 0 -15 -5 -15 -11 0 -14 -25 -39 -39 -39 -6 0 -11 -7
-11 -15 0 -9 -9 -15 -25 -15 -14 0 -25 -4 -25 -10 0 -5 -7 -10 -15 -10 -8 0
-15 -7 -15 -15 0 -8 -4 -15 -10 -15 -5 0 -10 -7 -10 -15 0 -8 -7 -15 -15 -15
-8 0 -15 -4 -15 -10 0 -5 -11 -10 -25 -10 -16 0 -25 -6 -25 -15 0 -9 -9 -15
-25 -15 -14 0 -25 -4 -25 -10 0 -5 -7 -10 -15 -10 -8 0 -15 -7 -15 -15 0 -9
-9 -15 -25 -15 -16 0 -25 -6 -25 -15 0 -9 -9 -15 -25 -15 -14 0 -25 -4 -25
-10 0 -5 -18 -10 -40 -10 -29 0 -40 -4 -40 -15 0 -9 -9 -15 -25 -15 -14 0 -25
-4 -25 -10 0 -5 -18 -10 -40 -10 -29 0 -40 -4 -40 -15 0 -11 -12 -15 -50 -15
-38 0 -50 -4 -50 -15 0 -12 -14 -15 -65 -15 -37 0 -65 -4 -65 -10 0 -6 -33
-10 -80 -10 -64 0 -80 -3 -80 -15 0 -12 -17 -15 -90 -15 -53 0 -90 -4 -90 -10
0 -6 -37 -10 -90 -10 -73 0 -90 -3 -90 -15 0 -12 -17 -15 -95 -15 -57 0 -95
-4 -95 -10 0 -6 -37 -10 -90 -10 -73 0 -90 -3 -90 -15 0 -12 -17 -15 -90 -15
-73 0 -90 -3 -90 -15 0 -12 -17 -15 -90 -15 -53 0 -90 -4 -90 -10 0 -6 -37
-10 -90 -10 -73 0 -90 -3 -90 -15 0 -12 -16 -15 -80 -15 -47 0 -80 -4 -80 -10
0 -6 -37 -10 -90 -10 -73 0 -90 -3 -90 -15 0 -12 -17 -15 -90 -15 -73 0 -90
-3 -90 -15 0 -12 -17 -15 -90 -15 -53 0 -90 -4 -90 -10 0 -6 -37 -10 -90 -10
-73 0 -90 -3 -90 -15 0 -12 -17 -15 -95 -15 -57 0 -95 -4 -95 -10 0 -6 -37
-10 -90 -10 -73 0 -90 -3 -90 -15 0 -12 -17 -15 -90 -15 -73 0 -90 -3 -90 -15
0 -12 -17 -15 -90 -15 -53 0 -90 -4 -90 -10 0 -6 -37 -10 -90 -10 -73 0 -90
-3 -90 -15 0 -12 -17 -15 -95 -15 -57 0 -95 -4 -95 -10 0 -6 -37 -10 -90 -10
-73 0 -90 -3 -90 -15 0 -12 -17 -15 -90 -15 -73 0 -90 -3 -90 -15 0 -12 -17
-15 -90 -15 -53 0 -90 -4 -90 -10 0 -6 -37 -10 -90 -10 -73 0 -90 -3 -90 -15
0 -12 -16 -15 -80 -15 -47 0 -80 -4 -80 -10 0 -6 -37 -10 -90 -10 -73 0 -90
-3 -90 -15 0 -12 -17 -15 -90 -15 -73 0 -90 -3 -90 -15 0 -12 -17 -15 -90 -15
-53 0 -90 -4 -90 -10 0 -6 -37 -10 -90 -10 -73 0 -90 -3 -90 -15 0 -12 -17
-15 -95 -15 -57 0 -95 -4 -95 -10 0 -6 -37 -10 -90 -10 -73 0 -90 -3 -90 -15
0 -12 -17 -15 -90 -15 -73 0 -90 -3 -90 -15 0 -12 -17 -15 -90 -15 -53 0 -90
-4 -90 -10 0 -6 -37 -10 -90 -10 -73 0 -90 -3 -90 -15 0 -12 -17 -15 -90 -15
-53 0 -90 -4 -90 -10 0 -6 -38 -10 -95 -10 -78 0 -95 -3 -95 -15 0 -12 -17
-15 -90 -15 -73 0 -90 -3 -90 -15 0 -12 -17 -15 -90 -15 -53 0 -90 -4 -90 -10
0 -6 -33 -10 -80 -10 -64 0 -80 -3 -80 -15 0 -12 -17 -15 -90 -15 -53 0 -90
-4 -90 -10 0 -6 -37 -10 -90 -10 -73 0 -90 -3 -90 -15 0 -12 -17 -15 -90 -15
-73 0 -90 -3 -90 -15 0 -12 -17 -15 -90 -15 -53 0 -90 -4 -90 -10 0 -6 -37
-10 -90 -10 -73 0 -90 -3 -90 -15 0 -12 -17 -15 -95 -15 -57 0 -95 -4 -95 -10
0 -6 -37 -10 -90 -10 -73 0 -90 -3 -90 -15 0 -12 -15 -15 -75 -15 -43 0 -75
-4 -75 -10 0 -5 -7 -10 -15 -10 -8 0 -15 5 -15 10 0 6 -11 10 -25 10 -14 0
-25 -4 -25 -10 0 -15 -157 -13 -164 3 -5 9 -7 9 -12 0 -7 -15 -34 -17 -34 -3
0 6 -28 10 -65 10 -51 0 -65 3 -65 15 0 11 -11 15 -40 15 -22 0 -40 5 -40 10
0 6 -22 10 -50 10 -38 0 -50 4 -50 15 0 9 -9 15 -25 15 -14 0 -25 5 -25 10 0
6 -11 10 -25 10 -16 0 -25 6 -25 15 0 10 -10 15 -30 15 -20 0 -30 5 -30 15 0
9 -9 15 -21 15 -22 0 -49 22 -49 39 0 6 -12 11 -26 11 -26 0 -54 20 -54 39 0
6 -11 11 -25 11 -16 0 -25 6 -25 15 0 8 -7 15 -15 15 -8 0 -15 5 -15 10 0 6
-7 10 -15 10 -8 0 -15 5 -15 11 0 6 -6 17 -14 25 -8 8 -19 14 -25 14 -6 0 -11
7 -11 15 0 8 -4 15 -10 15 -5 0 -10 7 -10 15 0 8 -7 15 -15 15 -8 0 -15 5 -15
10 0 6 -7 10 -15 10 -9 0 -15 9 -15 25 0 14 -4 25 -10 25 -5 0 -10 7 -10 15 0
8 -7 15 -15 15 -8 0 -15 7 -15 15 0 8 -4 15 -10 15 -5 0 -10 11 -10 25 0 16
-6 25 -15 25 -8 0 -15 5 -15 10 0 6 -7 10 -15 10 -10 0 -15 10 -15 30 0 17 -4
30 -10 30 -5 0 -10 11 -10 25 0 16 -6 25 -15 25 -11 0 -15 11 -15 40 0 22 -4
40 -10 40 -5 0 -10 11 -10 25 0 16 -6 25 -15 25 -11 0 -15 11 -15 40 0 22 -4
40 -10 40 -5 0 -10 23 -10 50 0 38 -4 50 -15 50 -12 0 -15 14 -15 65 0 51 -3
65 -15 65 -13 0 -15 187 -15 1620 0 1073 -3 1620 -10 1620 -5 0 -10 7 -10 15
0 8 5 15 10 15 7 0 10 937 10 2790 0 1853 -3 2790 -10 2790 -6 0 -10 55 -10
145 0 90 4 145 10 145 14 0 12 47 -2 54 -11 5 -11 7 0 12 8 4 12 31 12 85 0
64 3 79 15 79 12 0 15 14 15 65 0 51 3 65 15 65 11 0 15 12 15 50 0 28 5 50
10 50 6 0 10 18 10 40 0 29 4 40 15 40 11 0 15 11 15 40 0 22 5 40 10 40 6 0
10 11 10 25 0 16 6 25 15 25 11 0 15 11 15 40 0 22 5 40 10 40 6 0 10 11 10
25 0 16 6 25 15 25 8 0 15 7 15 15 0 8 7 15 15 15 9 0 15 9 15 25 0 14 5 25
10 25 6 0 10 11 10 25 0 16 6 25 15 25 8 0 15 7 15 15 0 8 5 15 10 15 6 0 10
11 10 25 0 16 6 25 15 25 8 0 15 5 15 10 0 6 7 10 15 10 9 0 15 10 15 26 0 26
20 54 39 54 6 0 11 7 11 15 0 8 5 15 10 15 6 0 10 11 10 25 0 16 6 25 15 25 8
0 15 7 15 15 0 8 5 15 11 15 14 0 39 25 39 39 0 6 5 11 11 11 14 0 39 25 39
39 0 6 7 11 15 11 8 0 15 7 15 15 0 8 5 15 11 15 14 0 39 25 39 39 0 6 11 11
25 11 14 0 25 5 25 10 0 6 7 10 15 10 8 0 15 7 15 15 0 8 7 15 15 15 8 0 15 5
15 11 0 17 27 39 49 39 12 0 21 6 21 15 0 8 7 15 15 15 8 0 15 5 15 10 0 6 11
10 25 10 16 0 25 6 25 15 0 9 9 15 25 15 16 0 25 6 25 15 0 10 10 15 30 15 17
0 30 5 30 10 0 6 11 10 25 10 16 0 25 6 25 15 0 9 9 15 25 15 14 0 25 5 25 10
0 6 18 10 40 10 29 0 40 4 40 15 0 11 11 15 40 15 29 0 40 4 40 15 0 10 11 15
35 15 19 0 35 5 35 10 0 6 28 10 65 10 51 0 65 3 65 15 0 12 16 15 80 15 47 0
80 4 80 10 0 6 37 10 90 10 73 0 90 3 90 15 0 12 17 15 90 15 53 0 90 4 90 10
0 6 37 10 90 10 73 0 90 3 90 15 0 12 17 15 95 15 78 0 95 3 95 15 0 12 17 15
90 15 53 0 90 4 90 10 0 6 40 10 100 10 82 0 100 3 100 15 0 12 17 15 95 15
57 0 95 4 95 10 0 6 37 10 90 10 73 0 90 3 90 15 0 12 17 15 90 15 73 0 90 3
90 15 0 12 17 15 90 15 53 0 90 4 90 10 0 6 37 10 90 10 73 0 90 3 90 15 0 12
18 15 105 15 63 0 105 4 105 10 0 6 37 10 90 10 73 0 90 3 90 15 0 12 17 15
90 15 73 0 90 3 90 15 0 12 17 15 95 15 57 0 95 4 95 10 0 6 37 10 90 10 73 0
90 3 90 15 0 12 17 15 90 15 53 0 90 4 90 10 0 6 42 10 105 10 87 0 105 3 105
15 0 12 17 15 90 15 73 0 90 3 90 15 0 12 17 15 90 15 53 0 90 4 90 10 0 6 37
10 90 10 73 0 90 3 90 15 0 12 17 15 90 15 53 0 90 4 90 10 0 6 38 10 95 10
78 0 95 3 95 15 0 12 17 15 90 15 73 0 90 3 90 15 0 12 18 15 100 15 60 0 100
4 100 10 0 6 38 10 95 10 78 0 95 3 95 15 0 12 17 15 90 15 53 0 90 4 90 10 0
6 37 10 90 10 73 0 90 3 90 15 0 12 17 15 90 15 73 0 90 3 90 15 0 12 17 15
90 15 53 0 90 4 90 10 0 6 42 10 105 10 87 0 105 3 105 15 0 12 17 15 90 15
53 0 90 4 90 10 0 6 37 10 90 10 73 0 90 3 90 15 0 12 17 15 95 15 78 0 95 3
95 15 0 12 17 15 90 15 53 0 90 4 90 10 0 6 37 10 90 10 73 0 90 3 90 15 0 12
18 15 105 15 63 0 105 4 105 10 0 6 37 10 90 10 73 0 90 3 90 15 0 12 17 15
90 15 73 0 90 3 90 15 0 12 17 15 90 15 53 0 90 4 90 10 0 6 37 10 90 10 73 0
90 3 90 15 0 12 17 15 95 15 57 0 95 4 95 10 0 6 45 10 115 10 96 0 115 3 115
15 0 12 16 15 80 15 47 0 80 4 80 10 0 6 5 10 10 10 6 0 10 -4 10 -10z"/>
<path d="M11710 13895 c0 -12 -17 -15 -90 -15 -73 0 -90 -3 -90 -15 0 -12 -17
-15 -95 -15 -57 0 -95 -4 -95 -10 0 -6 -37 -10 -90 -10 -73 0 -90 -3 -90 -15
0 -12 -17 -15 -90 -15 -53 0 -90 -4 -90 -10 0 -6 -37 -10 -90 -10 -73 0 -90
-3 -90 -15 0 -12 -18 -15 -105 -15 -87 0 -105 -3 -105 -15 0 -12 -17 -15 -90
-15 -53 0 -90 -4 -90 -10 0 -6 -37 -10 -90 -10 -73 0 -90 -3 -90 -15 0 -12
-17 -15 -90 -15 -53 0 -90 -4 -90 -10 0 -6 -38 -10 -95 -10 -78 0 -95 -3 -95
-15 0 -12 -17 -15 -90 -15 -73 0 -90 -3 -90 -15 0 -12 -17 -15 -90 -15 -53 0
-90 -4 -90 -10 0 -6 -42 -10 -105 -10 -87 0 -105 -3 -105 -15 0 -12 -17 -15
-90 -15 -53 0 -90 -4 -90 -10 0 -6 -37 -10 -90 -10 -73 0 -90 -3 -90 -15 0
-12 -17 -15 -90 -15 -73 0 -90 -3 -90 -15 0 -12 -17 -15 -90 -15 -53 0 -90 -4
-90 -10 0 -6 -38 -10 -95 -10 -78 0 -95 -3 -95 -15 0 -12 -18 -15 -100 -15
-60 0 -100 -4 -100 -10 0 -6 -37 -10 -90 -10 -73 0 -90 -3 -90 -15 0 -12 -17
-15 -95 -15 -78 0 -95 -3 -95 -15 0 -12 -17 -15 -90 -15 -53 0 -90 -4 -90 -10
0 -6 -37 -10 -90 -10 -73 0 -90 -3 -90 -15 0 -12 -17 -15 -90 -15 -53 0 -90
-4 -90 -10 0 -6 -37 -10 -90 -10 -73 0 -90 -3 -90 -15 0 -12 -18 -15 -105 -15
-87 0 -105 -3 -105 -15 0 -12 -17 -15 -90 -15 -53 0 -90 -4 -90 -10 0 -6 -37
-10 -90 -10 -73 0 -90 -3 -90 -15 0 -12 -17 -15 -95 -15 -57 0 -95 -4 -95 -10
0 -6 -37 -10 -90 -10 -73 0 -90 -3 -90 -15 0 -12 -17 -15 -90 -15 -53 0 -90
-4 -90 -10 0 -6 -42 -10 -105 -10 -87 0 -105 -3 -105 -15 0 -12 -17 -15 -90
-15 -73 0 -90 -3 -90 -15 0 -12 -17 -15 -90 -15 -53 0 -90 -4 -90 -10 0 -6
-37 -10 -90 -10 -73 0 -90 -3 -90 -15 0 -12 -17 -15 -90 -15 -53 0 -90 -4 -90
-10 0 -6 -38 -10 -95 -10 -78 0 -95 -3 -95 -15 0 -12 -17 -15 -90 -15 -73 0
-90 -3 -90 -15 0 -12 -18 -15 -100 -15 -60 0 -100 -4 -100 -10 0 -6 -38 -10
-95 -10 -78 0 -95 -3 -95 -15 0 -12 -17 -15 -90 -15 -53 0 -90 -4 -90 -10 0
-6 -37 -10 -90 -10 -73 0 -90 -3 -90 -15 0 -12 -17 -15 -90 -15 -73 0 -90 -3
-90 -15 0 -12 -17 -15 -90 -15 -53 0 -90 -4 -90 -10 0 -5 -25 -10 -55 -10 -42
0 -55 -3 -55 -15 0 -11 -12 -15 -50 -15 -27 0 -50 -4 -50 -10 0 -5 -11 -10
-25 -10 -16 0 -25 -6 -25 -15 0 -9 -9 -15 -25 -15 -16 0 -25 -6 -25 -15 0 -10
-10 -15 -30 -15 -16 0 -30 -4 -30 -10 0 -5 -11 -10 -25 -10 -16 0 -25 -6 -25
-15 0 -9 -9 -15 -25 -15 -14 0 -25 -4 -25 -10 0 -5 -7 -10 -15 -10 -8 0 -15
-7 -15 -15 0 -9 -9 -15 -25 -15 -14 0 -25 -5 -25 -11 0 -14 -25 -39 -39 -39
-6 0 -11 -7 -11 -15 0 -8 -5 -15 -11 -15 -14 0 -39 -25 -39 -39 0 -6 -7 -11
-15 -11 -8 0 -15 -5 -15 -11 0 -14 -25 -39 -39 -39 -6 0 -11 -7 -11 -15 0 -8
-5 -15 -11 -15 -14 0 -39 -25 -39 -39 0 -6 -7 -11 -15 -11 -8 0 -15 -5 -15
-11 0 -14 -25 -39 -39 -39 -6 0 -11 -11 -11 -25 0 -16 -6 -25 -15 -25 -9 0
-15 -10 -15 -26 0 -26 -20 -54 -39 -54 -6 0 -11 -11 -11 -25 0 -14 -4 -25 -10
-25 -5 0 -10 -13 -10 -30 0 -20 -5 -30 -15 -30 -9 0 -15 -9 -15 -25 0 -16 -6
-25 -15 -25 -9 0 -15 -9 -15 -25 0 -14 -4 -25 -10 -25 -5 0 -10 -18 -10 -40 0
-29 -4 -40 -15 -40 -10 0 -15 -11 -15 -35 0 -19 -4 -35 -10 -35 -5 0 -10 -25
-10 -55 0 -42 -3 -55 -15 -55 -13 0 -15 -24 -15 -155 0 -131 -2 -155 -15 -155
-13 0 -15 -327 -15 -2880 0 -2553 2 -2880 15 -2880 12 0 15 -14 15 -65 0 -51
-3 -65 -15 -65 -8 0 -15 -7 -15 -15 0 -8 7 -15 15 -15 13 0 15 -181 15 -1570
0 -1389 2 -1570 15 -1570 11 0 15 -12 15 -50 0 -27 5 -50 10 -50 6 0 10 -25
10 -55 0 -42 3 -55 15 -55 9 0 15 -9 15 -25 0 -14 5 -25 10 -25 6 0 10 -11 10
-25 0 -16 6 -25 15 -25 9 0 15 -9 15 -25 0 -16 6 -25 15 -25 8 0 15 -7 15 -15
0 -8 5 -15 10 -15 6 0 10 -11 10 -25 0 -16 6 -25 15 -25 9 0 15 -9 15 -25 0
-14 5 -25 10 -25 6 0 10 -7 10 -15 0 -8 7 -15 15 -15 8 0 15 -4 15 -10 0 -5 7
-10 15 -10 8 0 15 -7 15 -15 0 -8 5 -15 10 -15 6 0 10 -7 10 -15 0 -8 5 -15
11 -15 14 0 39 -25 39 -39 0 -6 7 -11 15 -11 8 0 15 -4 15 -10 0 -5 11 -10 25
-10 16 0 25 -6 25 -15 0 -8 7 -15 15 -15 8 0 15 -7 15 -15 0 -9 9 -15 25 -15
14 0 25 -4 25 -10 0 -5 11 -10 25 -10 16 0 25 -6 25 -15 0 -9 9 -15 25 -15 14
0 25 -4 25 -10 0 -5 14 -10 30 -10 20 0 30 -5 30 -15 0 -11 12 -15 50 -15 38
0 50 -4 50 -15 0 -13 34 -15 245 -15 211 0 245 2 245 15 0 12 17 15 90 15 73
0 90 3 90 15 0 12 17 15 95 15 57 0 95 4 95 10 0 6 37 10 90 10 73 0 90 3 90
15 0 12 17 15 90 15 53 0 90 4 90 10 0 6 37 10 90 10 73 0 90 3 90 15 0 12 17
15 90 15 73 0 90 3 90 15 0 12 17 15 90 15 53 0 90 4 90 10 0 6 38 10 95 10
78 0 95 3 95 15 0 12 17 15 90 15 53 0 90 4 90 10 0 6 37 10 90 10 73 0 90 3
90 15 0 12 17 15 90 15 73 0 90 3 90 15 0 12 17 15 90 15 53 0 90 4 90 10 0 6
37 10 90 10 73 0 90 3 90 15 0 12 17 15 95 15 57 0 95 4 95 10 0 6 37 10 90
10 73 0 90 3 90 15 0 12 15 15 75 15 60 0 75 3 75 15 0 12 17 15 95 15 57 0
95 4 95 10 0 6 37 10 90 10 73 0 90 3 90 15 0 12 17 15 90 15 53 0 90 4 90 10
0 6 37 10 90 10 73 0 90 3 90 15 0 12 17 15 90 15 73 0 90 3 90 15 0 12 17 15
90 15 53 0 90 4 90 10 0 6 38 10 95 10 78 0 95 3 95 15 0 12 17 15 90 15 53 0
90 4 90 10 0 6 37 10 90 10 73 0 90 3 90 15 0 12 17 15 90 15 73 0 90 3 90 15
0 12 17 15 90 15 53 0 90 4 90 10 0 6 37 10 90 10 73 0 90 3 90 15 0 12 17 15
95 15 57 0 95 4 95 10 0 6 37 10 90 10 73 0 90 3 90 15 0 12 17 15 90 15 53 0
90 4 90 10 0 6 33 10 80 10 64 0 80 3 80 15 0 12 17 15 90 15 73 0 90 3 90 15
0 12 17 15 90 15 53 0 90 4 90 10 0 6 37 10 90 10 73 0 90 3 90 15 0 12 17 15
90 15 53 0 90 4 90 10 0 6 37 10 90 10 73 0 90 3 90 15 0 12 17 15 95 15 78 0
95 3 95 15 0 12 17 15 90 15 53 0 90 4 90 10 0 6 37 10 90 10 73 0 90 3 90 15
0 12 17 15 90 15 53 0 90 4 90 10 0 6 37 10 90 10 73 0 90 3 90 15 0 12 17 15
90 15 73 0 90 3 90 15 0 12 17 15 95 15 57 0 95 4 95 10 0 6 32 10 75 10 60 0
75 3 75 15 0 12 14 15 65 15 37 0 65 4 65 10 0 6 23 10 50 10 38 0 50 4 50 15
0 10 10 15 30 15 20 0 30 5 30 15 0 9 9 15 25 15 14 0 25 5 25 10 0 6 11 10
25 10 16 0 25 6 25 15 0 9 9 15 25 15 14 0 25 5 25 10 0 6 7 10 15 10 8 0 15
7 15 15 0 9 9 15 25 15 16 0 25 6 25 15 0 8 7 15 15 15 8 0 15 5 15 10 0 6 11
10 25 10 14 0 25 5 25 11 0 14 25 39 39 39 6 0 11 7 11 15 0 8 7 15 15 15 8 0
15 5 15 11 0 14 25 39 39 39 6 0 11 5 11 11 0 14 25 39 39 39 6 0 11 7 11 15
0 8 7 15 15 15 8 0 15 7 15 15 0 8 5 15 10 15 6 0 10 11 10 25 0 14 5 25 11
25 14 0 39 25 39 39 0 6 7 11 15 11 9 0 15 9 15 25 0 16 6 25 15 25 9 0 15 9
15 25 0 14 5 25 10 25 6 0 10 7 10 15 0 8 7 15 15 15 9 0 15 9 15 25 0 14 5
25 10 25 6 0 10 18 10 40 0 29 4 40 15 40 9 0 15 9 15 25 0 16 6 25 15 25 11
0 15 11 15 40 0 22 5 40 10 40 6 0 10 18 10 40 0 29 4 40 15 40 11 0 15 12 15
50 0 28 5 50 10 50 6 0 10 72 10 195 0 167 2 195 15 195 13 0 15 498 15 4425
0 3927 -2 4425 -15 4425 -12 0 -15 14 -15 65 0 37 -4 65 -10 65 -5 0 -10 23
-10 50 0 38 -4 50 -15 50 -11 0 -15 11 -15 40 0 22 -4 40 -10 40 -5 0 -10 11
-10 25 0 16 -6 25 -15 25 -10 0 -15 10 -15 30 0 20 -5 30 -15 30 -9 0 -15 9
-15 21 0 22 -22 49 -39 49 -6 0 -11 12 -11 26 0 26 -20 54 -39 54 -6 0 -11 7
-11 15 0 8 -5 15 -11 15 -14 0 -39 25 -39 39 0 6 -7 11 -15 11 -8 0 -15 5 -15
11 0 14 -25 39 -39 39 -6 0 -11 7 -11 15 0 8 -5 15 -11 15 -14 0 -39 25 -39
39 0 6 -11 11 -25 11 -16 0 -25 6 -25 15 0 8 -7 15 -15 15 -8 0 -15 5 -15 10
0 6 -11 10 -25 10 -16 0 -25 6 -25 15 0 11 -11 15 -40 15 -22 0 -40 5 -40 10
0 6 -11 10 -25 10 -16 0 -25 6 -25 15 0 12 -13 15 -55 15 -42 0 -55 3 -55 15
0 13 -32 15 -230 15 -198 0 -230 -2 -230 -15z m-3062 -2305 c2 -6 30 -10 63
-10 33 0 59 -4 59 -10 0 -5 16 -10 35 -10 19 0 35 -4 35 -10 0 -5 18 -10 40
-10 22 0 40 -4 40 -10 0 -5 14 -10 30 -10 17 0 30 -4 30 -10 0 -5 11 -10 25
-10 14 0 25 -4 25 -9 0 -5 23 -11 50 -15 28 -4 50 -11 50 -16 0 -6 11 -10 25
-10 14 0 25 -4 25 -10 0 -5 9 -10 20 -10 11 0 20 -4 20 -10 0 -5 9 -10 20 -10
11 0 20 -4 20 -10 0 -5 9 -10 20 -10 11 0 20 -4 20 -10 0 -5 8 -10 18 -10 10
0 24 -9 32 -20 8 -11 20 -20 27 -20 7 0 13 -4 13 -10 0 -5 9 -10 19 -10 11 0
26 -7 35 -15 8 -8 20 -15 26 -15 7 0 25 -13 40 -30 15 -16 31 -30 35 -30 4 0
20 -13 35 -30 15 -16 33 -30 39 -30 7 0 23 -11 38 -24 29 -27 23 -21 119 -120
41 -42 79 -76 84 -76 6 0 10 -9 10 -20 0 -10 11 -30 25 -44 14 -14 25 -31 25
-38 0 -8 9 -20 20 -28 11 -8 20 -19 20 -25 0 -6 9 -17 20 -25 11 -8 20 -22 20
-32 0 -10 5 -18 10 -18 6 0 10 -9 10 -20 0 -11 5 -20 10 -20 6 0 10 -9 10 -20
0 -11 4 -20 9 -20 6 0 13 -20 17 -45 3 -25 10 -45 15 -45 5 0 9 -13 9 -30 0
-16 5 -30 10 -30 6 0 10 -13 10 -30 0 -16 5 -30 10 -30 6 0 10 -25 10 -55 0
-30 5 -55 10 -55 6 0 10 -35 10 -85 0 -50 -4 -85 -10 -85 -5 0 -10 -25 -10
-55 0 -30 -4 -55 -10 -55 -5 0 -10 -13 -10 -30 0 -16 -4 -30 -10 -30 -5 0 -10
-13 -10 -30 0 -16 -4 -30 -9 -30 -5 0 -12 -11 -15 -25 -4 -14 -11 -25 -16 -25
-6 0 -10 -9 -10 -20 0 -11 -4 -20 -10 -20 -5 0 -10 -7 -10 -16 0 -8 -18 -33
-40 -54 -22 -21 -40 -43 -40 -49 0 -6 -8 -11 -18 -11 -10 0 -24 -9 -32 -21
-28 -39 -68 -79 -80 -79 -7 0 -20 -8 -29 -19 -9 -10 -31 -22 -49 -25 -17 -4
-32 -12 -32 -17 0 -5 -9 -9 -20 -9 -11 0 -20 -4 -20 -10 0 -5 -13 -10 -30 -10
-16 0 -30 -4 -30 -10 0 -5 -13 -10 -30 -10 -16 0 -30 -4 -30 -10 0 -5 -11 -10
-25 -10 -14 0 -25 -4 -25 -10 0 -5 -18 -10 -40 -10 -22 0 -40 -4 -40 -10 0 -6
-28 -10 -65 -10 -37 0 -65 -4 -65 -10 0 -6 -57 -10 -150 -10 -93 0 -150 4
-150 10 0 6 -32 10 -75 10 -43 0 -75 4 -75 10 0 6 -22 10 -50 10 -27 0 -50 5
-50 10 0 6 -18 10 -40 10 -22 0 -40 5 -40 10 0 6 -11 10 -25 10 -14 0 -25 5
-25 10 0 6 -13 10 -30 10 -16 0 -30 5 -30 10 0 6 -13 10 -30 10 -16 0 -30 4
-30 9 0 5 -20 12 -45 15 -25 4 -45 11 -45 17 0 5 -13 9 -30 9 -16 0 -30 5 -30
10 0 6 -7 10 -15 10 -8 0 -15 5 -15 10 0 6 -9 10 -20 10 -11 0 -20 5 -20 10 0
6 -8 10 -18 10 -10 0 -24 9 -32 20 -8 11 -22 20 -32 20 -10 0 -18 5 -18 10 0
6 -9 10 -19 10 -10 0 -21 7 -25 15 -3 8 -14 15 -23 15 -10 0 -25 9 -33 20 -8
11 -21 20 -28 20 -8 0 -27 14 -42 30 -15 17 -31 30 -34 30 -4 0 -22 16 -42 35
-19 19 -42 35 -52 35 -9 1 -33 19 -52 41 -19 22 -50 55 -67 74 -18 19 -33 37
-33 40 0 4 -18 24 -40 45 -22 21 -40 43 -40 50 0 6 -11 22 -25 36 -14 14 -25
34 -25 44 0 11 -4 20 -10 20 -5 0 -10 6 -10 13 0 7 -9 19 -20 27 -11 8 -20 22
-20 32 0 10 -4 18 -10 18 -5 0 -10 9 -10 20 0 11 -4 20 -10 20 -5 0 -10 9 -10
20 0 11 -4 20 -10 20 -5 0 -10 11 -10 25 0 14 -4 25 -10 25 -5 0 -10 13 -10
29 0 16 -5 31 -10 33 -6 2 -13 40 -17 86 -3 45 -10 82 -14 82 -5 0 -9 47 -9
105 0 58 4 105 9 105 4 0 11 33 15 73 4 39 11 74 16 75 6 2 10 12 10 23 0 10
5 19 10 19 6 0 10 10 10 23 0 12 9 29 20 37 11 8 20 21 20 30 0 9 9 22 20 30
11 8 20 20 20 28 0 17 156 172 173 172 7 0 19 9 27 20 8 11 20 20 27 20 7 0
13 4 13 9 0 5 18 12 40 16 22 4 40 11 40 16 0 5 9 9 20 9 11 0 20 5 20 10 0 6
11 10 25 10 14 0 25 5 25 10 0 6 14 10 30 10 17 0 30 5 30 10 0 6 18 10 40 10
22 0 40 5 40 10 0 6 16 10 35 10 19 0 35 4 35 10 0 13 101 18 305 14 107 -3
181 -8 183 -14z m-2340 -1018 c2 -6 15 -12 28 -12 13 0 24 -4 24 -10 0 -5 9
-10 20 -10 11 0 20 -4 20 -10 0 -5 14 -10 30 -10 17 0 30 -4 30 -10 0 -5 9
-10 20 -10 11 0 20 -4 20 -10 0 -5 9 -10 19 -10 11 0 23 -9 26 -20 3 -11 13
-20 21 -20 9 0 22 -7 30 -15 9 -8 23 -15 32 -15 9 -1 33 -19 52 -41 64 -73
120 -129 130 -129 6 0 10 -7 10 -16 0 -9 13 -28 29 -43 17 -16 32 -43 36 -64
4 -20 11 -37 16 -37 5 0 9 -7 9 -15 0 -8 5 -15 10 -15 6 0 10 -9 10 -20 0 -11
5 -20 10 -20 6 0 10 -9 10 -20 0 -11 5 -20 10 -20 6 0 10 -9 10 -20 0 -11 5
-20 10 -20 6 0 10 -9 10 -20 0 -11 5 -20 10 -20 6 0 10 -11 10 -25 0 -14 5
-25 10 -25 6 0 10 -18 10 -40 0 -22 5 -40 10 -40 6 0 10 -15 10 -34 0 -19 5
-36 10 -38 6 -2 13 -56 17 -126 3 -67 10 -122 15 -122 4 0 8 -72 8 -160 0 -88
-4 -160 -9 -160 -4 0 -11 -64 -15 -142 -4 -79 -11 -144 -17 -146 -5 -2 -9 -24
-9 -48 0 -24 -4 -44 -10 -44 -5 0 -10 -18 -10 -40 0 -22 -4 -40 -10 -40 -5 0
-10 -11 -10 -25 0 -14 -4 -25 -10 -25 -5 0 -10 -18 -10 -40 0 -22 -4 -40 -10
-40 -5 0 -10 -11 -10 -25 0 -14 -4 -25 -10 -25 -5 0 -10 -13 -10 -30 0 -16 -4
-30 -10 -30 -5 0 -10 -9 -10 -20 0 -11 -4 -20 -10 -20 -5 0 -10 -13 -10 -29 0
-16 -5 -31 -11 -33 -5 -2 -13 -22 -16 -46 -3 -23 -10 -42 -14 -42 -5 0 -9 -9
-9 -20 0 -11 -4 -20 -10 -20 -5 0 -10 -9 -10 -20 0 -11 -4 -20 -10 -20 -5 0
-10 -7 -10 -15 0 -8 -4 -15 -10 -15 -5 0 -10 -9 -10 -20 0 -11 -4 -20 -10 -20
-5 0 -10 -9 -10 -20 0 -11 -4 -20 -10 -20 -5 0 -10 -8 -10 -18 0 -10 -9 -24
-20 -32 -10 -8 -22 -28 -26 -44 -4 -17 -15 -38 -25 -47 -11 -9 -19 -24 -19
-33 0 -9 -4 -16 -10 -16 -5 0 -10 -8 -10 -18 0 -10 -9 -24 -20 -32 -11 -8 -20
-18 -20 -23 0 -5 -13 -22 -30 -37 -16 -15 -30 -35 -30 -44 0 -8 -16 -31 -35
-50 -19 -20 -35 -38 -35 -41 0 -4 -18 -24 -40 -45 -22 -21 -40 -43 -40 -50 0
-9 -21 -36 -58 -72 -81 -80 -143 -138 -147 -138 -3 0 -21 -15 -40 -32 -50 -48
-63 -58 -76 -58 -6 0 -24 -13 -39 -30 -15 -16 -32 -30 -37 -30 -5 0 -15 -9
-23 -20 -8 -11 -21 -20 -29 -20 -7 0 -21 -8 -30 -18 -9 -11 -28 -22 -43 -26
-16 -3 -28 -11 -28 -16 0 -6 -7 -10 -15 -10 -8 0 -15 -4 -15 -10 0 -5 -9 -10
-20 -10 -11 0 -20 -4 -20 -10 0 -5 -9 -10 -20 -10 -11 0 -20 -4 -20 -10 0 -5
-9 -10 -20 -10 -11 0 -20 -4 -20 -10 0 -5 -9 -10 -20 -10 -11 0 -20 -4 -20
-10 0 -5 -11 -10 -25 -10 -14 0 -25 -4 -25 -10 0 -5 -9 -10 -20 -10 -11 0 -20
-4 -20 -9 0 -5 -25 -12 -55 -16 -30 -3 -55 -11 -55 -16 0 -5 -18 -9 -40 -9
-22 0 -40 -4 -40 -10 0 -5 -25 -10 -55 -10 -30 0 -55 -4 -55 -10 0 -6 -58 -10
-155 -10 -97 0 -155 4 -155 10 0 6 -20 10 -45 10 -25 0 -45 5 -45 10 0 6 -13
10 -30 10 -16 0 -30 4 -30 9 0 5 -25 13 -55 16 -30 4 -55 11 -55 16 0 5 -9 9
-20 9 -11 0 -20 5 -20 10 0 6 -8 10 -18 10 -10 0 -24 9 -32 20 -8 11 -19 20
-25 20 -6 0 -17 9 -25 20 -8 11 -20 20 -28 20 -12 0 -39 21 -85 68 -101 103
-147 153 -147 160 0 4 -9 14 -19 22 -11 7 -23 31 -26 52 -4 21 -11 38 -16 38
-5 0 -9 9 -9 20 0 11 -4 20 -10 20 -5 0 -10 7 -10 15 0 8 -4 15 -10 15 -5 0
-10 9 -10 20 0 11 -4 20 -10 20 -5 0 -10 9 -10 20 0 11 -4 20 -10 20 -5 0 -10
14 -10 30 0 17 -4 30 -10 30 -5 0 -10 11 -10 25 0 14 -4 25 -10 25 -5 0 -10
14 -10 30 0 17 -4 30 -10 30 -5 0 -10 20 -10 45 0 25 -4 45 -9 45 -5 0 -12 56
-16 125 -4 69 -11 125 -16 125 -5 0 -9 61 -9 135 0 74 4 135 8 135 5 0 12 62
16 138 4 75 11 139 16 140 6 2 10 24 10 48 0 24 5 44 10 44 6 0 10 18 10 40 0
22 5 40 10 40 6 0 10 18 10 40 0 22 5 40 10 40 6 0 10 11 10 25 0 14 5 25 10
25 6 0 10 14 10 30 0 17 5 30 10 30 6 0 10 14 10 30 0 17 5 30 10 30 6 0 10
11 10 25 0 14 5 25 10 25 6 0 10 14 10 30 0 17 4 30 9 30 5 0 12 18 16 40 4
22 11 40 16 40 5 0 9 11 9 25 0 14 5 25 10 25 6 0 10 9 10 20 0 11 5 20 10 20
6 0 10 9 10 20 0 11 5 20 10 20 6 0 10 9 10 20 0 11 5 20 10 20 6 0 10 6 10
13 0 7 9 19 20 27 11 8 20 22 20 32 0 10 4 18 9 18 5 0 12 17 16 38 3 21 15
45 26 52 10 8 19 19 19 25 0 6 9 17 20 25 11 8 20 21 20 30 0 9 9 22 20 30 11
8 20 21 20 30 0 9 9 22 20 30 11 8 20 20 20 27 0 7 16 28 35 47 19 20 35 40
35 47 0 13 58 69 71 69 5 0 9 7 9 15 0 17 18 39 88 108 77 77 131 127 137 127
4 0 27 22 53 48 26 27 59 52 74 55 15 4 30 16 33 27 3 11 14 20 23 20 10 0 24
9 32 20 8 11 21 20 30 20 9 0 22 9 30 20 8 11 22 20 32 20 10 0 18 5 18 10 0
6 7 10 15 10 8 0 15 5 15 10 0 6 9 10 19 10 11 0 26 7 35 15 8 8 26 15 40 15
14 0 26 5 26 10 0 6 9 10 20 10 11 0 20 5 20 10 0 6 7 10 15 10 8 0 15 5 15
10 0 6 9 10 20 10 11 0 20 5 20 10 0 6 14 10 30 10 17 0 30 5 30 10 0 6 11 10
25 10 14 0 25 5 25 10 0 6 18 10 40 10 22 0 40 4 40 9 0 15 74 19 329 17 175
-1 236 -5 239 -14z m4412 -822 c0 -5 9 -10 20 -10 11 0 20 -4 20 -9 0 -5 14
-13 32 -16 18 -4 44 -20 59 -36 15 -16 34 -29 43 -29 9 0 16 -7 16 -15 0 -16
8 -28 48 -70 12 -13 22 -28 22 -32 0 -5 9 -15 20 -23 11 -8 20 -22 20 -32 0
-10 5 -18 10 -18 6 0 10 -8 10 -18 0 -10 9 -24 20 -32 11 -8 20 -25 20 -37 0
-13 5 -23 10 -23 6 0 10 -9 10 -20 0 -11 4 -20 9 -20 5 0 12 -18 16 -40 4 -22
11 -40 16 -40 5 0 9 -11 9 -25 0 -14 5 -25 10 -25 6 0 10 -13 10 -30 0 -16 5
-30 10 -30 6 0 10 -13 10 -30 0 -16 5 -30 10 -30 6 0 10 -11 10 -25 0 -14 5
-25 10 -25 6 0 10 -18 10 -40 0 -22 5 -40 10 -40 6 0 10 -22 10 -50 0 -27 5
-50 10 -50 6 0 10 -15 10 -34 0 -19 6 -36 13 -38 9 -4 12 -90 12 -388 0 -298
-3 -384 -12 -387 -8 -3 -13 -22 -13 -49 0 -24 -4 -44 -10 -44 -5 0 -10 -13
-10 -30 0 -16 -4 -30 -10 -30 -5 0 -10 -13 -10 -30 0 -16 -4 -30 -10 -30 -5 0
-10 -7 -10 -15 0 -8 -4 -15 -10 -15 -5 0 -10 -8 -10 -18 0 -10 -9 -24 -20 -32
-11 -8 -20 -20 -20 -28 0 -13 -13 -32 -38 -55 -7 -7 -28 -27 -47 -44 -20 -20
-45 -33 -60 -33 -14 0 -25 -4 -25 -10 0 -6 -28 -10 -65 -10 -37 0 -65 4 -65
10 0 6 -13 10 -30 10 -16 0 -30 5 -30 10 0 6 -5 10 -10 10 -6 0 -22 11 -36 25
-14 14 -32 25 -40 25 -18 0 -44 24 -44 40 0 6 -16 26 -35 46 -19 19 -35 43
-35 54 0 10 -9 22 -20 25 -11 3 -20 14 -20 23 0 10 -9 24 -20 32 -11 8 -20 22
-20 32 0 10 -4 18 -10 18 -5 0 -10 9 -10 20 0 11 -4 20 -10 20 -5 0 -10 9 -10
20 0 11 -4 20 -10 20 -5 0 -10 11 -10 25 0 14 -4 25 -10 25 -5 0 -10 9 -10 20
0 11 -4 20 -9 20 -4 0 -11 19 -14 42 -3 24 -11 44 -16 46 -6 2 -11 21 -11 43
0 21 -4 39 -10 39 -5 0 -10 14 -10 30 0 17 -4 30 -10 30 -5 0 -10 16 -10 35 0
19 -4 35 -10 35 -5 0 -10 18 -10 40 0 22 -4 40 -10 40 -5 0 -10 20 -10 45 0
25 -4 45 -10 45 -6 0 -10 30 -10 70 0 40 -4 70 -10 70 -6 0 -10 97 -10 270 0
173 4 270 10 270 6 0 10 27 10 60 0 33 4 60 10 60 6 0 10 16 10 35 0 19 5 35
10 35 6 0 10 14 10 30 0 17 5 30 10 30 6 0 10 14 10 30 0 17 5 30 10 30 6 0
10 9 10 20 0 11 5 20 10 20 6 0 10 7 10 15 0 8 5 15 10 15 6 0 10 9 10 20 0
10 11 30 25 44 14 14 25 32 25 41 0 8 7 15 16 15 8 0 22 6 29 13 35 31 45 37
60 37 8 0 15 5 15 10 0 6 32 10 75 10 43 0 75 -4 75 -10z m284 -2672 c8 -7 23
-20 35 -28 11 -8 21 -22 21 -32 0 -10 5 -18 10 -18 6 0 10 -9 10 -20 0 -11 5
-20 10 -20 6 0 10 -16 10 -35 0 -19 5 -35 10 -35 6 0 10 -42 10 -105 0 -63 -4
-105 -10 -105 -6 0 -10 -30 -10 -70 0 -40 -4 -70 -10 -70 -5 0 -10 -16 -10
-35 0 -19 -4 -35 -10 -35 -5 0 -10 -18 -10 -40 0 -22 -4 -40 -10 -40 -5 0 -10
-11 -10 -25 0 -14 -4 -25 -10 -25 -5 0 -10 -13 -10 -30 0 -16 -4 -30 -10 -30
-5 0 -10 -13 -10 -30 0 -16 -4 -30 -10 -30 -5 0 -10 -11 -10 -25 0 -14 -4 -25
-10 -25 -5 0 -10 -9 -10 -20 0 -11 -4 -20 -9 -20 -5 0 -11 -22 -15 -50 -4 -27
-11 -50 -16 -50 -6 0 -10 -7 -10 -15 0 -8 -4 -15 -10 -15 -5 0 -10 -9 -10 -20
0 -11 -4 -20 -10 -20 -5 0 -10 -9 -10 -20 0 -11 -4 -20 -10 -20 -5 0 -10 -9
-10 -20 0 -11 -4 -20 -10 -20 -5 0 -10 -9 -10 -20 0 -11 -4 -20 -10 -20 -5 0
-10 -7 -10 -15 0 -8 -4 -15 -10 -15 -5 0 -10 -7 -10 -16 0 -8 -7 -22 -15 -30
-8 -9 -15 -24 -15 -35 0 -10 -4 -19 -10 -19 -5 0 -10 -9 -10 -19 0 -11 -9 -23
-20 -26 -11 -3 -20 -14 -20 -23 0 -10 -9 -24 -20 -32 -11 -8 -20 -20 -20 -28
0 -7 -16 -28 -35 -48 -19 -19 -35 -39 -35 -45 0 -14 -218 -229 -233 -229 -7 0
-19 -9 -27 -20 -8 -11 -22 -20 -32 -20 -10 0 -18 -4 -18 -10 0 -5 -9 -10 -20
-10 -11 0 -20 -4 -20 -10 0 -5 -11 -10 -25 -10 -14 0 -25 -4 -25 -10 0 -5 -13
-10 -30 -10 -16 0 -30 5 -30 10 0 6 -13 10 -30 10 -16 0 -30 4 -30 10 0 5 -11
20 -25 34 -14 14 -25 32 -25 41 0 8 -4 15 -10 15 -5 0 -10 11 -10 25 0 14 -4
25 -10 25 -6 0 -10 63 -10 170 0 107 4 170 10 170 6 0 10 23 10 50 0 28 5 50
10 50 6 0 10 16 10 35 0 19 5 35 10 35 6 0 10 18 10 40 0 22 4 40 9 40 5 0 12
25 16 55 3 30 11 55 16 55 5 0 9 9 9 20 0 11 5 20 10 20 6 0 10 14 10 30 0 17
5 30 10 30 6 0 10 9 10 20 0 11 5 20 10 20 6 0 10 11 10 25 0 14 5 25 10 25 6
0 10 9 10 20 0 11 5 20 10 20 6 0 10 9 10 20 0 11 5 20 10 20 6 0 10 9 10 20
0 11 4 20 10 20 5 0 12 16 16 35 3 19 10 35 15 35 5 0 9 9 9 20 0 11 5 20 10
20 6 0 10 8 10 18 0 10 9 24 20 32 11 8 20 20 20 27 0 7 5 13 10 13 6 0 10 8
10 18 0 10 9 24 20 32 11 8 20 22 20 32 0 10 4 18 10 18 5 0 13 12 16 28 7 26
39 62 56 62 4 0 8 7 8 16 0 8 18 33 40 54 22 21 40 43 40 49 0 14 97 111 111
111 6 0 28 18 49 40 21 22 43 40 49 40 6 0 11 4 11 10 0 5 23 12 50 16 28 4
50 10 50 15 0 14 120 11 134 -3z m-5224 -898 c0 -5 25 -10 55 -10 30 0 55 -4
55 -10 0 -5 18 -10 40 -10 22 0 40 -4 40 -10 0 -5 16 -10 35 -10 19 0 35 -4
35 -10 0 -5 14 -10 30 -10 17 0 30 -4 30 -10 0 -5 14 -10 30 -10 17 0 30 -4
30 -10 0 -5 11 -10 25 -10 14 0 25 -4 25 -10 0 -5 9 -10 20 -10 11 0 20 -4 20
-10 0 -5 9 -10 20 -10 11 0 20 -4 20 -9 0 -5 16 -12 35 -15 19 -4 35 -11 35
-16 0 -6 9 -10 20 -10 11 0 20 -4 20 -10 0 -5 9 -10 20 -10 11 0 20 -4 20 -10
0 -5 8 -10 18 -10 10 0 24 -9 32 -20 8 -11 22 -20 32 -20 10 0 18 -4 18 -10 0
-5 6 -10 13 -10 7 0 19 -9 27 -20 8 -11 22 -20 32 -20 9 0 28 -11 42 -25 14
-14 32 -25 41 -25 8 0 15 -4 15 -9 0 -13 56 -71 69 -71 12 0 39 -23 84 -68 95
-97 127 -134 127 -147 0 -8 4 -15 9 -15 18 0 68 -56 75 -82 3 -16 11 -28 16
-28 6 0 10 -8 10 -18 0 -10 9 -24 20 -32 11 -8 20 -19 20 -25 0 -6 9 -17 20
-25 11 -8 20 -22 20 -32 0 -10 5 -18 10 -18 6 0 10 -9 10 -20 0 -11 5 -20 10
-20 6 0 10 -9 10 -19 0 -11 5 -21 11 -23 5 -2 13 -22 16 -46 3 -23 10 -42 14
-42 5 0 9 -9 9 -20 0 -11 5 -20 10 -20 6 0 10 -13 10 -30 0 -16 5 -30 10 -30
6 0 10 -16 10 -35 0 -19 5 -35 10 -35 6 0 10 -22 10 -50 0 -27 5 -50 10 -50 6
0 10 -57 10 -150 0 -93 -4 -150 -10 -150 -5 0 -10 -20 -10 -45 0 -25 -4 -45
-10 -45 -5 0 -10 -13 -10 -30 0 -16 -4 -30 -10 -30 -5 0 -10 -9 -10 -20 0 -11
-4 -20 -10 -20 -5 0 -10 -9 -10 -20 0 -11 -4 -20 -10 -20 -5 0 -12 -16 -16
-35 -3 -19 -10 -35 -15 -35 -5 0 -9 -7 -9 -16 0 -8 -18 -33 -40 -54 -22 -21
-40 -41 -40 -45 0 -12 -29 -35 -44 -35 -9 0 -16 -4 -16 -9 0 -15 -57 -71 -72
-71 -7 0 -20 -9 -28 -19 -7 -11 -31 -23 -52 -26 -21 -4 -38 -11 -38 -16 0 -5
-7 -9 -15 -9 -8 0 -15 -4 -15 -10 0 -5 -9 -10 -20 -10 -11 0 -20 -4 -20 -10 0
-5 -13 -10 -30 -10 -16 0 -30 -4 -30 -10 0 -5 -11 -10 -25 -10 -14 0 -25 -4
-25 -10 0 -5 -18 -10 -40 -10 -22 0 -40 -4 -40 -10 0 -6 -28 -10 -65 -10 -37
0 -65 -4 -65 -10 0 -6 -55 -10 -145 -10 -90 0 -145 4 -145 10 0 6 -28 10 -65
10 -37 0 -65 4 -65 10 0 6 -20 10 -45 10 -25 0 -45 5 -45 10 0 6 -18 10 -40
10 -22 0 -40 5 -40 10 0 6 -13 10 -30 10 -16 0 -30 5 -30 10 0 6 -11 10 -25
10 -14 0 -25 5 -25 10 0 6 -13 10 -30 10 -16 0 -30 4 -30 9 0 6 -20 13 -45 17
-25 3 -45 10 -45 15 0 5 -9 9 -20 9 -11 0 -20 5 -20 10 0 6 -9 10 -20 10 -11
0 -20 5 -20 10 0 6 -9 10 -20 10 -11 0 -20 5 -20 10 0 6 -9 10 -19 10 -11 0
-23 9 -26 20 -3 11 -15 20 -26 20 -10 0 -19 5 -19 10 0 6 -9 10 -20 10 -11 0
-20 4 -20 10 0 5 -12 13 -27 16 -16 4 -35 15 -44 26 -9 10 -20 18 -23 18 -4 0
-25 18 -46 40 -21 22 -43 40 -50 40 -9 0 -28 15 -71 56 -5 5 -22 24 -38 42
-16 17 -34 32 -41 32 -15 0 -40 25 -40 40 0 6 -29 39 -65 75 -36 35 -65 70
-65 77 0 8 -9 20 -20 28 -11 8 -20 22 -20 32 0 9 -9 20 -20 23 -11 3 -20 13
-20 21 0 9 -7 22 -15 30 -8 9 -15 24 -15 35 0 10 -4 19 -10 19 -5 0 -10 9 -10
20 0 11 -4 20 -10 20 -5 0 -10 7 -10 15 0 8 -4 15 -10 15 -5 0 -10 9 -10 20 0
11 -4 20 -10 20 -5 0 -10 9 -10 20 0 11 -4 20 -10 20 -5 0 -10 9 -10 20 0 11
-4 20 -10 20 -5 0 -10 11 -10 25 0 14 -4 25 -10 25 -5 0 -10 14 -10 30 0 17
-4 30 -10 30 -5 0 -10 18 -10 39 0 23 -5 41 -12 44 -10 3 -13 56 -13 222 0
166 3 219 13 223 7 2 12 20 12 43 0 21 5 39 10 39 6 0 10 9 10 20 0 11 5 20
10 20 6 0 10 7 10 15 0 8 5 15 10 15 6 0 10 9 10 20 0 11 5 20 10 20 6 0 10 9
10 20 0 11 5 20 10 20 6 0 10 7 10 16 0 17 36 54 51 54 5 0 12 12 15 27 8 29
46 73 64 73 6 0 26 16 46 35 19 19 41 35 49 35 8 0 15 5 15 10 0 6 8 10 18 10
10 0 24 9 32 20 8 11 22 20 32 20 10 0 18 5 18 10 0 6 14 10 30 10 17 0 30 5
30 10 0 6 7 10 15 10 8 0 15 5 15 10 0 6 14 10 30 10 17 0 30 5 30 10 0 6 18
10 40 10 22 0 40 5 40 10 0 6 20 10 45 10 25 0 45 5 45 10 0 6 73 10 200 10
127 0 200 -4 200 -10z m3728 -1059 c2 -6 15 -11 28 -11 13 0 24 -4 24 -10 0
-5 9 -10 20 -10 11 0 20 -4 20 -10 0 -5 7 -10 15 -10 22 0 81 -61 89 -93 3
-15 11 -27 16 -27 6 0 10 -16 10 -35 0 -19 5 -35 10 -35 6 0 10 -22 10 -50 0
-27 -4 -50 -10 -50 -5 0 -10 -16 -10 -35 0 -19 -4 -35 -9 -35 -5 0 -11 -22
-15 -50 -4 -27 -11 -50 -16 -50 -6 0 -10 -6 -10 -13 0 -7 -9 -19 -20 -27 -11
-8 -20 -21 -20 -30 0 -9 -9 -22 -20 -30 -11 -8 -20 -21 -20 -29 0 -14 -37 -51
-52 -51 -4 0 -8 -9 -8 -20 0 -22 -164 -190 -185 -190 -4 0 -24 -18 -45 -40
-21 -22 -44 -40 -50 -40 -7 0 -24 -13 -39 -29 -14 -15 -36 -31 -49 -35 -12 -4
-22 -12 -22 -17 0 -5 -8 -9 -18 -9 -10 0 -24 -9 -32 -20 -8 -11 -21 -20 -30
-20 -9 0 -22 -9 -30 -20 -8 -11 -20 -20 -27 -20 -7 0 -13 -4 -13 -10 0 -5 -9
-10 -20 -10 -11 0 -20 -4 -20 -10 0 -5 -7 -10 -16 -10 -8 0 -22 -7 -30 -15 -9
-8 -24 -15 -35 -15 -10 0 -19 -4 -19 -10 0 -5 -11 -10 -25 -10 -14 0 -25 -4
-25 -10 0 -5 -9 -10 -20 -10 -11 0 -20 -4 -20 -10 0 -5 -9 -10 -20 -10 -11 0
-20 -4 -20 -10 0 -5 -9 -10 -20 -10 -11 0 -20 -4 -20 -10 0 -5 -11 -10 -25
-10 -14 0 -25 -4 -25 -10 0 -5 -13 -10 -30 -10 -16 0 -30 -4 -30 -10 0 -5 -9
-10 -20 -10 -11 0 -20 -4 -20 -10 0 -5 -15 -10 -34 -10 -19 0 -36 -4 -38 -10
-1 -5 -38 -13 -80 -16 -43 -4 -78 -11 -78 -15 0 -5 -29 -9 -65 -9 -37 0 -65
-4 -65 -10 0 -6 -35 -10 -85 -10 -50 0 -85 4 -85 10 0 6 -20 10 -45 10 -25 0
-45 4 -45 9 0 5 -22 11 -50 15 -27 4 -50 11 -50 16 0 6 -9 10 -20 10 -11 0
-20 4 -20 10 0 5 -20 30 -45 54 -30 30 -45 54 -45 71 0 14 -4 25 -10 25 -6 0
-10 37 -10 90 0 53 4 90 10 90 6 0 10 14 10 30 0 17 5 30 10 30 6 0 10 9 10
20 0 11 5 20 10 20 6 0 10 9 10 20 0 11 5 20 10 20 6 0 10 7 10 15 0 8 5 15
10 15 6 0 10 9 10 20 0 10 11 30 25 44 14 14 25 30 25 37 0 6 14 24 30 39 17
15 30 31 30 34 0 4 15 22 33 41 17 19 48 52 67 74 19 22 41 40 48 41 7 0 20 6
28 13 38 31 64 59 64 67 0 6 7 10 16 10 9 0 29 14 44 30 15 17 34 30 42 30 7
0 20 9 28 20 8 11 23 20 33 20 9 0 20 7 23 15 4 8 14 15 23 15 9 0 23 9 31 20
8 11 22 20 32 20 10 0 18 5 18 10 0 6 9 10 20 10 11 0 20 5 20 10 0 6 7 10 15
10 8 0 15 5 15 10 0 6 9 10 20 10 11 0 20 5 20 10 0 6 9 10 20 10 11 0 20 4
20 9 0 5 18 12 40 16 22 4 40 11 40 16 0 5 7 9 15 9 8 0 15 5 15 10 0 6 9 10
20 10 11 0 20 5 20 10 0 6 14 10 30 10 17 0 30 5 30 10 0 6 9 10 20 10 11 0
20 5 20 10 0 6 11 10 25 10 14 0 25 5 25 10 0 6 18 10 40 10 22 0 40 5 40 10
0 6 14 10 30 10 17 0 30 5 30 10 0 6 20 10 45 10 25 0 45 4 45 10 0 13 90 18
265 15 98 -2 151 -7 153 -14z"/>
</g>
</svg>
