<svg
  width="36"
  height="36"
  color="#fff"
  xmlns="http://www.w3.org/2000/svg"
  viewBox="0 0 36 36"
  aria-hidden="true"
>
  <path
    fill="currentColor"
    d="M31.252 9.813c-.451-.356-.99-.843-1.972-.964-.92-.122-1.858.495-2.493.903-.633.408-1.832 1.606-2.327 1.971-.495.365-1.763.704-3.805 1.929-2.041 1.225-10.048 6.366-10.048 6.366l2.084.027-9.293 4.784h.928l-1.337 1.016s1.181.313 2.172-.312v.287s11.065-4.361 13.201-3.232l-1.302.382h2.215c.051.435.197.854.428 1.226.231.372.541.689.909.927 1.268.834 1.294 1.294 1.294 1.294s-.66.269-.66.608c0 0 .973-.295 1.875-.269.573.022 1.142.112 1.693.269 0 0-.069-.364-.946-.608-.878-.243-1.746-1.199-2.172-1.719-.261-.332-.43-.726-.492-1.144-.062-.417-.015-.843.137-1.237.304-.789 1.364-1.225 3.553-2.354 2.579-1.337 3.17-2.328 3.535-3.101.364-.773.902-2.311 1.207-3.031.382-.929.85-1.424 1.241-1.719.39-.296 2.127-.947 2.127-.947s-1.328-1.155-1.754-1.494z"
  />
</svg>
