<svg
  width="36"
  height="36"
  color="#fff"
  xmlns="http://www.w3.org/2000/svg"
  viewBox="0 0 36 36"
  aria-hidden="true"
>
  <path
    fill="currentColor"
    fill-rule="evenodd"
    clip-rule="evenodd"
    d="M18 30.25c6.766 0 12.25-5.484 12.25-12.25S24.766 5.75 18 5.75 5.75 11.234 5.75 18 11.234 30.25 18 30.25zm0 1.75c7.732 0 14-6.268 14-14S25.732 4 18 4 4 10.268 4 18s6.268 14 14 14z"
  />
  <path
    fill="currentColor"
    fill-rule="evenodd"
    clip-rule="evenodd"
    d="M8.782 18.601c1.81 1.548 4.618 3.009 8.008 3.917 3.389.908 6.552 1.047 8.893.611 2.481-.462 3.424-1.414 3.609-2.104.185-.689-.156-1.985-2.073-3.626-1.809-1.548-4.618-3.009-8.007-3.917-3.39-.908-6.553-1.047-8.894-.611-2.48.462-3.424 1.414-3.609 2.104-.185.689.157 1.985 2.073 3.626zM5.019 14.522c-.919 3.429 4.148 7.766 11.318 9.687 7.169 1.921 13.726.699 14.645-2.73.918-3.429-4.149-7.766-11.318-9.687-7.17-1.921-13.727-.699-14.645 2.73z"
  />
  <path
    fill="currentColor"
    d="M24.187 15.525a2.856 2.856 0 1 1-4.037-4.037 2.856 2.856 0 0 1 4.037 4.037zM13.978 23.259a2.856 2.856 0 1 1-4.037-4.037 2.856 2.856 0 0 1 4.037 4.037z"
  />
</svg>
