<?xml version="1.0" encoding="UTF-8"?><svg id="Layer_2" xmlns="http://www.w3.org/2000/svg" viewBox="0 0 455.021 254.215"><g id="Layer_2-2"><text transform="translate(180.749 119.147)" style="fill:#fff; font-family:UnboundedVariable-Medium, &apos;Unbounded Variable&apos;; font-size:19px; font-variation-settings:&apos;wght&apos; 550; font-weight:500;"><tspan x="0" y="0" style="letter-spacing:-.002em;">D</tspan><tspan x="17.271" y="0" style="letter-spacing:-.023em;">o</tspan><tspan x="31.616" y="0" style="letter-spacing:0em;">wnlo</tspan><tspan x="87.78" y="0" style="letter-spacing:-.002em;">a</tspan><tspan x="103.065" y="0">d </tspan><tspan x="123.29" y="0" style="letter-spacing:-.013em;">F</tspan><tspan x="137.398" y="0" style="letter-spacing:-.002em;">o</tspan><tspan x="152.142" y="0" style="letter-spacing:-.027em;">r</tspan></text><text transform="translate(174.86 169.813)" style="fill:#fff; font-family:Inter-ExtraBold, Inter; font-size:48px; font-weight:700;"><tspan x="0" y="0">macOS</tspan></text><rect x="60.227" y="88.856" width="92.718" height="92.718" rx="13.908" ry="13.908" style="fill:#fff; stroke-width:0px;"/><path d="M111.295,119.641v-.724c-9.417,0-.905,6.157,0,.724ZM115.641,116.381c1.268-3.803,7.787-4.165,8.511.543h-1.811c-.543-2.716-5.071-2.897-5.071,1.992,0,2.716,4.165,4.346,5.071,1.087h1.811c-1.087,5.976-10.684,3.803-8.511-3.622ZM89.202,113.484h1.811v1.63c.905-2.173,4.889-2.354,5.614.181,1.268-2.716,6.338-2.535,6.338,1.268v6.7h-1.992v-6.157c0-2.716-3.984-2.716-3.984.181v5.976h-1.992v-6.338c-.443-1.695-2.701-2.034-3.622-.543l-.362.905v5.976h-1.811v-9.779ZM93.367,160.386c-8.511,0-13.763-5.976-13.763-15.574s5.252-15.393,13.763-15.393,13.944,5.976,13.944,15.393-5.252,15.574-13.944,15.574ZM109.303,123.263c-5.252,1.268-5.976-5.433-.543-5.614l2.535-.181v-.724c.181-2.173-3.441-2.354-3.984-.362h-1.811c.007-.447.132-.884.362-1.268,1.449-2.535,7.425-2.535,7.425,1.449v6.7h-1.811v-1.63c-.453.834-1.246,1.429-2.173,1.63ZM121.617,160.386c-6.519-.362-11.046-3.441-11.409-8.873h4.346c4.165,13.038,26.439-.905,4.527-5.433-3.441-.724-5.976-2.354-7.062-4.346-6.881-13.401,19.739-17.385,20.463-3.622h-4.165c-1.268-8.873-17.747-3.984-11.771,2.173,2.535,2.535,7.787,2.354,11.59,3.984,9.054,4.165,4.708,16.479-6.519,16.117ZM93.367,133.223c-5.795,0-9.417,4.527-9.417,11.59s3.622,11.59,9.417,11.59,9.598-4.346,9.598-11.59-3.622-11.59-9.598-11.59Z" style="fill:#171717; stroke-width:0px;"/><path d="M453.293,168.723c.118,10.999-8.697,21.259-19.589,22.799L22.31,249.689c-10.892,1.54-19.851-6.2-19.91-17.2l-.787-147.767c-.059-11,8.807-21.248,19.7-22.773L431.7,4.495c10.894-1.525,19.903,6.227,20.021,17.226l1.572,147.002Z" style="fill:none; stroke:#fff; stroke-miterlimit:10; stroke-width:3px;"/></g></svg>