<?xml version="1.0" encoding="UTF-8"?><svg id="Layer_2" xmlns="http://www.w3.org/2000/svg" viewBox="0 0 455.021 254.215"><g id="Layer_2-2"><path d="M62.229,98.725l37.416-5.095.016,36.091-37.398.213-.034-31.208h0ZM99.627,133.878l.029,36.122-37.398-5.142-.002-31.223,37.371.242h0ZM104.163,92.962l49.61-7.24v43.539l-49.61.393v-36.692h0ZM153.785,134.218l-.012,43.343-49.61-7.002-.069-36.422,49.691.081Z" style="fill:#fff; stroke-width:0px;"/><path d="M191.712,100.054c1.641,0,3.09.296,4.347.888s2.231,1.427,2.921,2.503c.691,1.077,1.036,2.321,1.036,3.733s-.345,2.657-1.036,3.733c-.689,1.077-1.664,1.911-2.921,2.503s-2.706.888-4.347.888h-6.773v-14.25h6.773ZM188.15,113.04l-1.633-1.586h5.434c.956,0,1.799-.176,2.527-.527.728-.351,1.29-.85,1.686-1.496.396-.646.594-1.396.594-2.251s-.197-1.605-.594-2.251c-.396-.646-.958-1.145-1.686-1.496-.729-.352-1.571-.527-2.527-.527h-5.434l1.633-1.586v11.723Z" style="fill:#fff; stroke-width:0px;"/><path d="M208.138,114.589c-1.336,0-2.514-.236-3.533-.708s-1.812-1.14-2.375-2.004c-.564-.865-.846-1.854-.846-2.969,0-1.127.281-2.122.846-2.983.562-.861,1.355-1.53,2.375-2.004,1.02-.475,2.197-.713,3.533-.713s2.507.238,3.529.713c1.023.475,1.816,1.143,2.38,2.004s.846,1.855.846,2.983c0,1.115-.282,2.104-.846,2.969-.563.864-1.356,1.533-2.38,2.004-1.022.472-2.199.708-3.529.708ZM208.138,112.185c.723,0,1.35-.133,1.881-.399.533-.266.941-.645,1.227-1.135s.427-1.072.427-1.743-.142-1.254-.427-1.748-.693-.874-1.227-1.14c-.531-.266-1.158-.399-1.881-.399-.729,0-1.357.133-1.891.399-.531.266-.939.646-1.225,1.14s-.428,1.077-.428,1.748.143,1.252.428,1.743.693.869,1.225,1.135c.533.266,1.162.399,1.891.399Z" style="fill:#fff; stroke-width:0px;"/><path d="M230.71,112.575h-1.045l3.392-9.072h3.173l-4.199,10.801h-3.238l-3.602-9.319h1.131l-3.667,9.319h-3.239l-4.189-10.801h3.211l3.391,9.072h-1.072l3.467-9.072h3.088l3.4,9.072Z" style="fill:#fff; stroke-width:0px;"/><path d="M237.036,103.503h3.184l.674,4.104v6.697h-3.173v-7.172l-.685-3.629ZM245.026,103.208c1.02,0,1.893.205,2.617.613.725.409,1.277.995,1.658,1.758.379.763.569,1.667.569,2.712v6.014h-3.173v-5.529c0-.963-.236-1.697-.707-2.204-.473-.507-1.152-.76-2.039-.76-.62,0-1.16.135-1.619.404-.459.27-.814.649-1.064,1.14s-.375,1.062-.375,1.715l-1.035-.551c.127-1.108.428-2.062.902-2.859s1.082-1.406,1.819-1.824c.737-.418,1.554-.627,2.446-.627Z" style="fill:#fff; stroke-width:0px;"/><path d="M252.105,99.674h3.182v14.63h-3.182v-14.63Z" style="fill:#fff; stroke-width:0px;"/><path d="M263.864,114.589c-1.336,0-2.514-.236-3.533-.708s-1.812-1.14-2.375-2.004c-.564-.865-.846-1.854-.846-2.969,0-1.127.281-2.122.846-2.983.562-.861,1.355-1.53,2.375-2.004,1.02-.475,2.197-.713,3.533-.713s2.507.238,3.529.713c1.023.475,1.816,1.143,2.38,2.004s.846,1.855.846,2.983c0,1.115-.282,2.104-.846,2.969-.563.864-1.356,1.533-2.38,2.004-1.022.472-2.199.708-3.529.708ZM263.864,112.185c.723,0,1.35-.133,1.881-.399.533-.266.941-.645,1.227-1.135s.427-1.072.427-1.743-.142-1.254-.427-1.748-.693-.874-1.227-1.14c-.531-.266-1.158-.399-1.881-.399-.729,0-1.357.133-1.891.399-.531.266-.939.646-1.225,1.14s-.428,1.077-.428,1.748.143,1.252.428,1.743.693.869,1.225,1.135c.533.266,1.162.399,1.891.399Z" style="fill:#fff; stroke-width:0px;"/><path d="M283.197,108.908c-.209,1.134-.586,2.129-1.13,2.988-.545.858-1.225,1.521-2.038,1.99s-1.722.703-2.722.703c-1.045,0-1.977-.236-2.793-.708-.817-.472-1.452-1.14-1.905-2.004-.452-.865-.679-1.854-.679-2.969,0-1.127.227-2.122.679-2.983.453-.861,1.088-1.53,1.905-2.004.816-.475,1.748-.713,2.793-.713,1,0,1.909.234,2.727.703.816.469,1.498,1.132,2.042,1.99.545.858.919,1.861,1.121,3.007ZM275.151,108.908c0,.614.128,1.167.385,1.658.256.491.615.873,1.078,1.145.462.272.984.408,1.566.408.59,0,1.148-.136,1.678-.408.528-.272.996-.651,1.4-1.135.406-.485.723-1.041.951-1.667-.229-.633-.545-1.192-.951-1.677-.404-.484-.872-.864-1.4-1.14-.529-.275-1.088-.413-1.678-.413-.582,0-1.104.139-1.566.418-.463.279-.822.662-1.078,1.149-.257.488-.385,1.042-.385,1.663ZM282.361,114.304l-.456-3.952.504-1.444-.504-1.435.456-3.971h3.287l-.627,5.396.627,5.405h-3.287Z" style="fill:#fff; stroke-width:0px;"/><path d="M298.483,108.908c-.209,1.134-.586,2.129-1.13,2.988-.545.858-1.225,1.521-2.038,1.99s-1.722.703-2.722.703c-1.045,0-1.977-.236-2.793-.708-.817-.472-1.452-1.14-1.905-2.004-.452-.865-.679-1.854-.679-2.969,0-1.127.227-2.122.679-2.983.453-.861,1.088-1.53,1.905-2.004.816-.475,1.748-.713,2.793-.713,1,0,1.909.234,2.727.703.816.469,1.498,1.132,2.042,1.99.545.858.919,1.861,1.121,3.007ZM290.437,108.908c0,.614.128,1.167.385,1.658.256.491.615.873,1.078,1.145.462.272.984.408,1.566.408.59,0,1.148-.136,1.678-.408.528-.272.996-.651,1.4-1.135.406-.485.723-1.041.951-1.667-.229-.633-.545-1.192-.951-1.677-.404-.484-.872-.864-1.4-1.14-.529-.275-1.088-.413-1.678-.413-.582,0-1.104.139-1.566.418-.463.279-.822.662-1.078,1.149-.257.488-.385,1.042-.385,1.663ZM297.704,114.304l-.467-4.076.609-1.301-.59-1.567.855-7.686h3.287l-1.045,9.006.617,5.624h-3.268Z" style="fill:#fff; stroke-width:0px;"/><path d="M320.417,100.054v2.765h-10.592l1.625-1.653v13.139h-3.221v-14.25h12.188ZM309.796,106.087h10.289v2.764h-10.289v-2.764Z" style="fill:#fff; stroke-width:0px;"/><path d="M328.265,114.589c-1.336,0-2.514-.236-3.533-.708s-1.812-1.14-2.375-2.004c-.564-.865-.846-1.854-.846-2.969,0-1.127.281-2.122.846-2.983.562-.861,1.355-1.53,2.375-2.004,1.02-.475,2.197-.713,3.533-.713s2.507.238,3.529.713c1.023.475,1.816,1.143,2.38,2.004s.846,1.855.846,2.983c0,1.115-.282,2.104-.846,2.969-.563.864-1.356,1.533-2.38,2.004-1.022.472-2.199.708-3.529.708ZM328.265,112.185c.723,0,1.35-.133,1.881-.399.533-.266.941-.645,1.227-1.135s.427-1.072.427-1.743-.142-1.254-.427-1.748-.693-.874-1.227-1.14c-.531-.266-1.158-.399-1.881-.399-.729,0-1.357.133-1.891.399-.531.266-.939.646-1.225,1.14s-.428,1.077-.428,1.748.143,1.252.428,1.743.693.869,1.225,1.135c.533.266,1.162.399,1.891.399Z" style="fill:#fff; stroke-width:0px;"/><path d="M336.292,103.503h3.211l.646,3.895v6.907h-3.174v-7.258l-.684-3.543ZM345.422,106.115c-.323-.07-.649-.124-.979-.162s-.644-.057-.94-.057c-.646,0-1.221.137-1.725.409-.504.272-.9.689-1.192,1.25-.291.56-.437,1.255-.437,2.085l-.656-.808c.107-1.095.334-2.062.68-2.897s.838-1.499,1.478-1.99c.64-.491,1.425-.736,2.356-.736.233,0,.475.016.721.048.248.032.479.073.694.124v2.736Z" style="fill:#fff; stroke-width:0px;"/><path d="M188.598,164.97l-10.159-34.909h9.324l5.268,22.875h.289l6.018-22.875h7.602l6.018,22.926h.29l5.284-22.926h9.307l-10.143,34.909h-8.131l-6.289-21.17h-.273l-6.289,21.17h-8.114Z" style="fill:#fff; stroke-width:0px;"/><path d="M235.507,135.737c-1.171,0-2.176-.389-3.017-1.167-.842-.778-1.262-1.719-1.262-2.821s.42-2.04,1.262-2.812c.841-.772,1.846-1.159,3.017-1.159,1.182,0,2.19.387,3.025,1.159.836.773,1.253,1.71,1.253,2.812s-.417,2.043-1.253,2.821c-.835.778-1.844,1.167-3.025,1.167ZM231.331,164.97v-26.182h8.335v26.182h-8.335Z" style="fill:#fff; stroke-width:0px;"/><path d="M253.284,150.038v14.932h-8.335v-26.182h7.926v4.807h.29c.579-1.591,1.568-2.847,2.966-3.767s3.062-1.381,4.994-1.381c1.841,0,3.44.409,4.799,1.228,1.357.818,2.414,1.966,3.17,3.443.756,1.477,1.128,3.199,1.116,5.165v16.688h-8.335v-15.051c.012-1.454-.355-2.591-1.1-3.409-.744-.818-1.775-1.227-3.094-1.227s-2.378.42-3.179,1.261c-.801.841-1.208,2.006-1.219,3.495Z" style="fill:#fff; stroke-width:0px;"/><path d="M284.955,165.345c-1.921,0-3.674-.503-5.259-1.508-1.585-1.006-2.85-2.503-3.793-4.492-.943-1.988-1.414-4.472-1.414-7.449,0-3.08.488-5.611,1.466-7.594.977-1.983,2.261-3.455,3.852-4.415,1.591-.96,3.296-1.44,5.114-1.44,2.068,0,3.695.503,4.884,1.509,1.187,1.006,2.025,2.111,2.514,3.315h.171v-13.21h8.335v34.909h-8.25v-4.244h-.256c-.522,1.205-1.387,2.275-2.591,3.213-1.205.938-2.796,1.406-4.772,1.406ZM287.853,158.851c1.522,0,2.707-.631,3.554-1.892.847-1.262,1.271-2.955,1.271-5.08,0-2.136-.424-3.824-1.271-5.062s-2.031-1.858-3.554-1.858c-1.546,0-2.733.628-3.562,1.883-.83,1.256-1.244,2.935-1.244,5.037,0,2.114.414,3.804,1.244,5.071.829,1.268,2.017,1.901,3.562,1.901Z" style="fill:#fff; stroke-width:0px;"/><path d="M318.33,165.464c-2.739,0-5.097-.565-7.074-1.696s-3.497-2.71-4.56-4.739-1.594-4.383-1.594-7.065.531-5.054,1.594-7.082c1.062-2.029,2.582-3.608,4.56-4.739s4.335-1.696,7.074-1.696,5.11.565,7.082,1.696,3.488,2.71,4.551,4.739c1.062,2.028,1.594,4.389,1.594,7.082s-.531,5.037-1.594,7.065-2.579,3.608-4.551,4.739-4.332,1.696-7.082,1.696ZM318.381,159.175c1.488,0,2.642-.67,3.46-2.011s1.228-3.091,1.228-5.25c0-2.17-.409-3.929-1.228-5.276s-1.972-2.02-3.46-2.02c-1.546,0-2.73.673-3.554,2.02-.824,1.347-1.236,3.105-1.236,5.276,0,2.159.412,3.909,1.236,5.25.823,1.341,2.008,2.011,3.554,2.011Z" style="fill:#fff; stroke-width:0px;"/><path d="M340.164,164.97l-6.818-26.182h8.37l3.528,16.772h.222l3.783-16.772h8.165l3.887,16.653h.221l3.427-16.653h8.369l-6.835,26.182h-8.915l-4.091-15.256h-.29l-4.091,15.256h-8.932Z" style="fill:#fff; stroke-width:0px;"/><path d="M399.533,146.783l-7.653.205c-.114-.83-.528-1.509-1.244-2.037s-1.625-.792-2.728-.792c-.966,0-1.787.19-2.463.571-.677.381-1.009.907-.997,1.577-.012.5.195.94.622,1.321.426.381,1.19.685,2.292.912l5.046.955c5.147.988,7.738,3.352,7.772,7.091-.011,1.795-.543,3.358-1.594,4.688s-2.485,2.361-4.304,3.094-3.897,1.099-6.238,1.099c-3.739,0-6.688-.77-8.847-2.31-2.159-1.54-3.387-3.605-3.682-6.196l8.232-.205c.182.955.653,1.682,1.415,2.182.761.5,1.732.75,2.915.75,1.067,0,1.937-.199,2.607-.597.671-.397,1.012-.926,1.022-1.585-.034-1.102-1.097-1.858-3.188-2.267l-4.567-.869c-5.217-.966-7.808-3.495-7.773-7.585-.011-2.625,1.028-4.67,3.119-6.136s4.909-2.199,8.455-2.199,6.341.742,8.387,2.225c2.045,1.483,3.176,3.52,3.392,6.111Z" style="fill:#fff; stroke-width:0px;"/><path d="M453.293,168.723c.118,10.999-8.697,21.259-19.589,22.799L22.31,249.689c-10.892,1.54-19.851-6.2-19.91-17.2l-.787-147.767c-.059-11,8.807-21.248,19.7-22.773L431.7,4.495c10.894-1.525,19.903,6.227,20.021,17.226l1.572,147.002Z" style="fill:none; stroke:#fff; stroke-miterlimit:10; stroke-width:3px;"/></g></svg>